<?xml version="1.0" ?><svg id="Layer_1" style="enable-background:new 0 0 512 512;" version="1.1" viewBox="0 0 512 512" xml:space="preserve" xmlns="http://www.w3.org/2000/svg" xmlns:xlink="http://www.w3.org/1999/xlink"><style type="text/css">
	.st0{fill:none;stroke:#000000;stroke-width:10;stroke-linecap:round;stroke-linejoin:round;stroke-miterlimit:10;}
</style><g><path class="st0" d="M403.8,178.4c0.1,0.2,0.1,0.5,0.2,0.7 M407.3,194.5c4.9,29.6,0.2,59.4-13,89.1   c-19.4,43.8-47.5,81.7-81.3,115.3c-15.5,15.4-32.3,29.5-48.6,44c-1.8,1.6-4.2,2.6-6.3,3.9c-1.5,0-3,0-4.5,0   c-6.1-4.6-12.5-8.9-18.3-13.8c-25.1-21.4-48.5-44.4-69-70.1 M144.6,332.9c-14.6-21.9-27.2-45-34.9-70.4   c-11.3-37.2-8.8-73.8,7.9-109.1c16.6-35.1,43-60.3,78.5-75.9c14.8-6.5,30.4-10.5,46.7-11.7c1-0.1,1.9-0.4,2.8-0.6   c6.7,0,13.4,0,20.1,0c7.8,1.2,15.8,1.9,23.5,3.8c47.3,11.4,82.5,38.7,104.1,82.4c1.9,3.9,3.6,7.7,5.2,11.6 M210.4,159.6   c-17.8,13.6-29.4,35.2-29.9,59.6c-0.9,41.1,33,75.5,75,76.2c40.9,0.6,75.1-32.9,75.9-74.5c0.8-41.6-32.9-76-75-76.6   c-9-0.1-17.6,1.4-25.6,4.2"/></g></svg>